<?xml version="1.0" encoding="UTF-8" standalone="no" ?>
<!DOCTYPE svg PUBLIC "-//W3C//DTD SVG 1.1//EN" "http://www.w3.org/Graphics/SVG/1.1/DTD/svg11.dtd">
<svg xmlns="http://www.w3.org/2000/svg" xmlns:xlink="http://www.w3.org/1999/xlink" version="1.1" width="1080" height="1080" viewBox="0 0 1080 1080" xml:space="preserve">
<desc>Created with Fabric.js 5.2.4</desc>
<defs>
</defs>
<rect x="0" y="0" width="100%" height="100%" fill="transparent"></rect>
<g transform="matrix(1 0 0 1 540 540)" id="621dd495-9aa8-4375-9d7b-e786bd187578"  >
<rect style="stroke: none; stroke-width: 1; stroke-dasharray: none; stroke-linecap: butt; stroke-dashoffset: 0; stroke-linejoin: miter; stroke-miterlimit: 4; fill: rgb(255,255,255); fill-rule: nonzero; opacity: 1; visibility: hidden;" vector-effect="non-scaling-stroke"  x="-540" y="-540" rx="0" ry="0" width="1080" height="1080" />
</g>
<g transform="matrix(1 0 0 1 540 540)" id="14a6ff80-1461-446e-a773-54a2986fb839"  >
</g>
<g transform="matrix(0.92 0.38 -0.38 0.92 470.51 616.01)" id="260d0c86-265c-4dd5-8bdd-287d1905ca4f"  >
<path style="stroke: rgb(0,0,0); stroke-width: 0; stroke-dasharray: none; stroke-linecap: butt; stroke-dashoffset: 0; stroke-linejoin: miter; stroke-miterlimit: 4; fill: rgb(255,255,255); fill-rule: nonzero; opacity: 1;" vector-effect="non-scaling-stroke"  transform=" translate(-540.34, -330.41)" d="M 208.1 542.8 C 199.5 536.6 191 530.9 182.9 524.5 C 171.5 515.6 159.8 506.8 149.4 496.8 C 139.9 487.6 130.9 477.5 123.3 466.7 C 114.8 454.5 108 441.1 100.5 428.2 C 94.2 417.3 87.8 406.5 81.8 395.4 C 77.9 388.2 74.9 380.6 71.3 373.3 C 69.9 370.4 67.8 367.8 66.4 364.8 C 62.2 355.6 58.2 346.2 54.2 336.9 C 50.2 327.5 45.9 318.3 42.5 308.7 C 37.8 295.8 33.5 282.8 29.4 269.7 C 25.5 257.1 21.8 244.4 18.4 231.7 C 15.5 220.6 12.7 209.3 10.5 198 C 8 185.6 6.1 173.1 4.4 160.5 C 2.8 147.9 1.6 135.3 0.4 122.7 C 0 117.8 0.4 112.9 0.4 108 C 0.4 90.9 0 73.7 0.5 56.5 C 0.8 45.9 2.3 35.3 3.4 24.8 C 3.8 20.9 7.1 20 10.3 19.7 C 12.6 19.4 15 19.8 17.4 19.6 C 25.1 19 32.9 18.5 40.6 17.5 C 45.7 16.9 50.7 15.5 55.8 14.6 C 64.5 13 73.1 11 81.7 14.5 C 88.1 17.1 94.2 17.3 101.2 15.9 C 112.1 13.6 123.3 12.9 134.5 11.6 C 147.2 10.2 160 8.7 172.8 7.7 C 181 7 189.2 7 197.4 6.6 C 216.5 5.6 235.6 4.8 254.6 3.5 C 263.2 3 271.8 1 280.4 0.7 C 297.3 0.3 314.2 0.6 331.1 0.6 C 340.1 0.6 349.2 0 358.2 0.7 C 372.2 1.9 386.2 3.6 400.1 5.7 C 415.4 8 430.7 10.6 445.8 13.7 C 456.8 16 467.4 19.9 478.4 21.8 C 486.1 23.1 494.2 22.3 502.2 22.3 C 509.6 22.3 517.1 22.2 524.6 22.4 C 528.2 22.5 531.9 23.7 535.5 23.5 C 544.2 23 552.1 25.6 560.2 27.9 C 567.3 29.9 574.3 31 581.2 34.1 C 584.8 35.8 590.6 32.9 595.4 32 C 608.4 29.6 621.4 27.1 634.3 24.6 C 640.6 23.3 646.9 21.8 653.2 20.6 C 658.3 19.7 663.4 19.3 668.5 18.6 C 677 17.3 685.4 15.8 693.9 14.7 C 696.6 14.3 699.6 14.9 702.4 14.5 C 713.1 13.3 723.9 12 734.7 10.6 C 738.9 10 743.1 9 747.4 8.7 C 757.8 7.9 768.2 7.1 778.6 6.9 C 799.3 6.6 820 6.4 840.7 6.7 C 858.6 6.9 876.7 6.6 894.3 9.1 C 904.9 10.6 915.7 10.7 926.2 12.5 C 931.3 13.4 936.7 12.9 941.8 13.7 C 953.6 15.5 965.3 18.5 977.2 19.7 C 986.1 20.6 994.8 25 1004.4 20.9 C 1008.1 19.3 1013.3 21.3 1017.8 21.5 C 1020.8 21.7 1023.8 21.7 1026.8 21.6 C 1035 21.4 1042.8 23.5 1050.5 26.1 C 1053.7 27.2 1057.2 28 1060.6 28.2 C 1069 28.9 1071.4 35.6 1073.1 41.7 C 1076 51.3 1077.9 61.2 1079.2 71.2 C 1080.3 79.6 1080.2 88.2 1080.3 96.7 C 1080.5 106.5 1080.5 116.2 1080.3 125.9 C 1080 137.8 1080.1 149.8 1076.4 161.4 C 1070.9 178.7 1065.7 196 1060.2 213.2 C 1056.4 225.1 1052.6 237.1 1048.3 248.8 C 1044.4 259.3 1039.6 269.5 1035.5 280 C 1030 294.2 1024.7 308.5 1019.4 322.8 C 1014.8 334.8 1010.8 346.9 1005.6 358.6 C 1000.9 369.3 995.1 379.6 989.5 389.9 C 983.6 400.5 978.2 411.5 971.2 421.3 C 960.9 435.4 949.4 448.7 938.3 462.1 C 932.5 469 926.6 475.8 920.2 482.1 C 910.3 491.9 899.6 501 889.8 510.8 C 880 520.6 871.4 531.4 861.4 540.8 C 852.6 549.1 842.7 556.1 833.4 563.6 C 829 567.1 825.1 571.6 820.1 574 C 813.5 577.1 807.7 581.1 801.8 585.3 C 794.2 590.6 785.6 594.3 777.5 599 C 765 606.3 753 614.4 740.1 621 C 729.6 626.4 718.3 630.3 707.3 634.6 C 699.4 637.6 691.4 640.8 683.3 643 C 669.3 646.9 655.3 650.4 641.1 653.5 C 629.2 656.2 617.1 658.3 605 660.4 C 603.1 660.7 601 659.7 599 659.6 C 589.4 659.5 579.9 659.9 570.3 659.5 C 559.7 659.2 549.2 658.2 538.6 657.6 C 532.1 657.2 525.4 657.2 518.9 656.5 C 505.1 655.1 491.3 653.3 477.5 651.6 C 467.7 650.3 457.8 649.3 448.1 647.5 C 437.1 645.4 426.1 642.8 415.3 639.9 C 403.5 636.8 391.6 633.6 380.1 629.4 C 369 625.4 358.4 620 347.5 615.3 C 335.2 610 322.8 604.8 310.5 599.6 C 309.4 599.1 308.2 598.6 307.2 597.9 C 302.7 595.1 299 591.3 292.8 591.3 C 289.7 591.3 286.5 588.3 283.4 586.6 C 274.8 581.9 266.1 577.5 257.7 572.5 C 244.8 564.9 232.2 556.9 219.4 549.2 C 215.8 547 212 545.1 208.1 542.8 M 812.4 340.1 C 812.1 340.1 811.7 340 811.4 340 C 811.7 340.2 812.1 340.4 812.4 341.1 C 816.4 346.8 820.5 352.4 824.4 358.2 C 829.1 365.1 834.6 371.6 838 379.1 C 842.2 388.1 845 397.9 847.7 407.5 C 850.9 419.2 850.3 431 844.4 441.8 C 840.9 448.2 835.9 453.9 831.3 459.8 C 825.4 467.4 819.5 475 813.1 482.2 C 810 485.6 806 488.2 802.3 491.1 C 796.4 495.9 790.7 501.4 784.3 505.5 C 772.6 512.8 760.5 519.5 748.3 526 C 741 530 733.5 533.9 725.6 536.4 C 717.1 539 708.1 540.3 699.3 541.5 C 692.8 542.4 686.2 542.9 679.8 542.3 C 671.9 541.5 664 539.4 656.3 537.5 C 651.5 536.4 645.9 535.7 642.4 532.7 C 631 523.2 622.4 511.4 617.4 497.2 C 616 493.3 614.3 489.4 613.4 485.4 C 611.5 475.8 610 466.1 608.4 456.5 C 607 448 605.7 439.6 604.4 431.1 C 603.7 427.4 603.1 423.7 602.3 420 C 602.2 419.5 601.7 419 601.4 418.6 C 601.1 419 600.5 419.4 600.4 419.8 C 600 423 599.4 426.2 599.4 429.4 C 599.5 434.3 600.4 439.1 600.3 444 C 600.1 457 599.4 470.1 599.4 483.1 C 599.4 498.4 597.8 513.4 592.2 527.6 C 588.8 536.2 584.4 544.7 579 552.1 C 572.4 561.2 562.8 566.1 551.1 567.8 C 537.2 570 523.4 572.5 509.2 570.7 C 499.2 569.5 489.1 569.1 479 568.6 C 467.5 568.1 455.9 568 444.4 567.6 C 440.2 567.4 436 567.2 431.8 566.6 C 411.4 563.5 393.2 555.6 378.7 540.4 C 376.1 537.7 374.2 534 371.2 532.1 C 362.9 527.1 359 518.7 354.5 511 C 346.4 497.2 349.7 482.3 351.8 467.7 C 353.1 458.8 354.9 449.9 356.3 441.1 C 356.5 440.3 356.1 439.5 356 438.7 C 355.4 439.4 354.8 440 354.4 440.8 C 350.8 447.5 347.6 454.4 343.5 460.8 C 336.7 471.6 328.8 481.7 319.2 490.3 C 316.3 492.9 313 494.5 309.1 493.5 C 304.1 492.2 299 490.7 294.1 488.8 C 285.8 485.5 277.3 482.4 269.6 478.1 C 258.7 471.9 248.2 464.9 238.1 457.6 C 230 451.8 222.3 445.3 215 438.5 C 207.6 431.7 200.7 424.4 194.2 416.8 C 186.3 407.5 178.6 398 171.4 388.2 C 162.1 375.4 155.8 360.8 149.2 346.4 C 143 333 138.9 319.3 139.4 304.5 C 139.6 299.8 140.7 295.1 141.4 290.3 C 143.1 278.2 147 267.1 156.1 258.5 C 163.5 251.3 171.2 244.5 178.9 237.6 C 185.9 231.4 193.5 226.3 202 222.2 C 209 218.9 215.5 214.4 222.1 210.3 C 222.9 209.8 223.2 208.5 223.8 207.5 C 222.9 207.5 221.8 207.2 221 207.5 C 211.7 210.7 202.4 213.9 193.1 217.4 C 188.5 219.1 184.4 222.1 179.7 223.5 C 170.9 226.2 162 228.7 153 230.2 C 147.8 231.1 142.3 230.2 137 229.7 C 128.6 228.8 124.4 221.5 119.9 216.1 C 109.6 204 104.1 188.9 98.3 174.2 C 91.8 157.4 86.2 140.5 84.4 122.5 C 83.9 117.9 83.5 113.4 83.4 108.9 C 83.4 106.7 84.4 104.5 84.3 102.3 C 83.9 97.4 82.8 92.5 82.4 87.6 C 82.1 83.5 83.1 79.1 82.2 75.2 C 80.2 66.8 82 59.1 84.4 51.3 C 87.4 41.3 92 32.1 99.1 24.4 C 100.4 23 100.7 22.6 98.4 22.6 C 94.6 22.5 90.8 22.7 87.2 21.8 C 75.7 18.8 64.4 17.3 53.1 22.3 C 50.1 23.6 46.7 24.3 43.5 24.5 C 40.6 24.6 39.6 25.7 39.3 28.3 C 38.7 34.5 37.7 40.7 37.4 47 C 36.9 59.9 35.9 72.8 36.6 85.7 C 37.3 99.2 39.4 112.7 41.5 126.1 C 42.7 134.1 43.5 141.9 43.5 150 C 43.5 158.7 44.6 167.4 45.4 176.2 C 45.7 179.3 46.2 182.5 46.8 185.5 C 48.6 193.8 50.6 202 52.3 210.3 C 54.2 219 55.8 227.8 57.8 236.5 C 60.1 246 62.8 255.4 65.4 264.9 C 67.7 273.4 69.7 282 72.5 290.4 C 74.6 297.1 77.7 303.6 80.4 310.1 C 85 321.9 89.4 333.8 94.5 345.3 C 100.1 358 106.3 370.4 112.4 382.9 C 115.9 390.1 119.3 397.4 123.6 404.2 C 131.2 416.1 139.2 427.8 147.4 439.3 C 155.5 450.7 162.8 462.6 174.8 470.9 C 183.6 477 190.8 485.3 198.8 492.5 C 209.4 501.9 220.1 511.2 230.7 520.5 C 232.7 522.2 234.4 524.2 236.6 525.5 C 245.1 531 253.7 536.5 262.4 541.5 C 271.4 546.7 280.5 551.7 289.8 556.4 C 295.5 559.3 301.6 561.6 307.5 564.3 C 317.3 568.7 326.9 574 337 577.4 C 352 582.5 367.5 585.8 382.5 590.7 C 396.7 595.4 410.7 600.7 424.5 606.4 C 436.4 611.3 449 613.6 461.3 616.5 C 474.3 619.5 487.5 622 500.6 624.3 C 510.6 626 520.7 627.4 530.8 628.5 C 535.2 629 539.6 628.5 544 628.6 C 553.2 628.9 562.4 629.2 571.6 629.6 C 574.4 629.8 577.4 630.9 580.1 630.5 C 590.8 629.1 601.4 626.5 612.1 625.8 C 625.2 625 637.9 622.6 650.6 619.6 C 662.9 616.7 675.3 614.1 687.3 610.5 C 698.4 607.1 709.1 602.8 719.9 598.5 C 726.7 595.8 733.7 593 740 589.3 C 750.2 583.1 759.9 576.1 769.9 569.6 C 780.2 562.8 790.9 556.5 800.9 549.3 C 813.4 540.5 825.4 531 837.4 521.5 C 843.9 516.3 850.5 511 856.3 504.9 C 866.1 494.8 875.3 484.2 884.7 473.7 C 885.3 473.1 885.8 472.5 886.4 471.9 C 893.2 463.4 900.2 455 907 446.5 C 914.5 437.1 922.3 427.9 929.2 418.2 C 935.7 409.1 943.4 401 948.2 390.6 C 951.5 383.5 957.3 377.7 961.3 370.9 C 968.6 358.5 975.5 345.9 982.2 333.1 C 987.3 323.6 991.9 313.8 996.4 304 C 999.4 297.3 1001.8 290.2 1004.4 283.3 C 1008.9 271.2 1015.6 260 1019.1 247.4 C 1021.8 237.9 1025.5 228.7 1028.1 219.2 C 1030.6 210 1032.3 200.6 1034.2 191.2 C 1036.3 180.9 1038.5 170.6 1040.3 160.2 C 1041.4 154 1040.5 147.3 1042.6 141.5 C 1047.5 127.7 1045.9 113.5 1047.1 99.5 C 1048.2 86.5 1046.5 73.3 1047.6 60.3 C 1048.5 50.5 1048.2 41.4 1044.3 32.4 C 1043.6 30.9 1041.7 28.9 1040.2 28.7 C 1029.9 27.5 1019.6 26.6 1009.3 25.7 C 1008.5 25.6 1007.6 26.4 1006.7 26.7 C 1007.2 27.4 1007.5 28.2 1008.1 28.8 C 1010.5 31.2 1013.6 33.1 1015.2 35.8 C 1020 43.9 1022.6 52.7 1024.7 61.9 C 1027.5 73.9 1025.8 85.1 1023.2 96.4 C 1021.5 103.5 1018.1 110.3 1015.3 117.1 C 1009.8 130.6 1001 140.9 986.7 145.6 C 970.9 150.8 955.1 148.9 939.4 146 C 930.3 144.3 921.6 140.9 912.6 138.4 C 911.3 138 909.8 138.3 908.4 138.3 C 909.4 139.4 910.4 140.5 911.5 141.6 C 912 142 912.5 142.4 913.1 142.6 C 931.7 148.2 949.2 156.5 965.6 166.7 C 975.2 172.7 981.6 181.6 986.4 191.8 C 993 205.8 990.3 220.1 988 234.2 C 986.2 244.9 982.5 255.2 979.3 265.6 C 971.9 290.2 965 315.2 948.3 335.7 C 939.5 346.6 928 354.3 915.8 360.4 C 907.8 364.3 899 366.5 890.4 369 C 879.4 372.1 867.9 373.1 856.9 370.4 C 841.8 366.6 829.7 357.7 819.7 345.6 C 817.9 343.4 814.8 342.2 812.4 340.1 M 402.4 347.1 C 396.8 358.3 391.2 369.5 385.8 380.7 C 384.2 383.9 383.4 387.4 381.8 390.6 C 377.6 399 372.7 407.1 368.9 415.7 C 366.3 421.7 364.8 428.1 363.4 434.5 C 361.4 443.9 359.9 453.4 358.4 462.9 C 357.2 469.9 356.5 477.1 355.3 484.1 C 354.1 491.6 355 499 358.8 505.3 C 364.4 514.8 371 523.6 379.8 530.6 C 384.9 534.7 388.8 540.5 394.3 543.7 C 404 549.4 414.1 555.3 424.8 558.2 C 435.6 561.1 447.5 560.8 458.9 561.5 C 471.8 562.4 484.7 563.4 497.6 563.5 C 512.6 563.6 527.7 563 542.8 562.5 C 545.4 562.4 547.9 561 550.5 560.6 C 563.4 559 573.4 552.6 579.1 541.1 C 584 531.2 588.7 520.8 591 510.1 C 593.6 498 593.8 485.4 594.3 472.9 C 595 453.4 595.1 433.9 595.3 414.3 C 595.4 409.7 594.5 405 594.4 400.3 C 594.4 397.1 595.6 393.8 595.3 390.7 C 594.2 378.9 592.5 367.1 591.4 355.3 C 590.7 347.5 590.7 339.6 590.3 331.7 C 590.1 326 590.3 320.2 589.2 314.7 C 586.8 301.1 585.6 287.6 585.3 273.8 C 585.1 265.7 584.1 257.7 583.3 249.6 C 582.1 236 580.6 222.3 579.4 208.6 C 578.6 199.4 578.2 190.2 577.3 181 C 576.2 169.5 574.8 158 573.3 146.6 C 572.6 141.3 571.5 136.1 570.3 130.9 C 569.2 126.2 567.3 121.7 566.4 117 C 564.8 108.4 563.8 99.8 562.3 91.2 C 561.5 86.7 561.8 81.1 555.5 80.3 C 550.7 79.7 545.8 79.2 541.1 79.8 C 536.7 80.3 532.4 82.1 528.2 83.7 C 523.9 85.3 520.6 87.9 519.2 93 C 517.6 98.6 514.8 103.8 512.3 109.1 C 506.8 120.7 501.2 132.2 495.7 143.8 C 492.5 150.6 489.5 157.5 486.4 164.4 C 477.4 184.5 469.5 205.2 459 224.5 C 451.9 237.4 447.2 251.4 438.7 263.8 C 432.4 272.8 429.5 284.2 425 294.5 C 421.9 301.5 418.5 308.4 415.4 315.5 C 411 325.7 406.7 335.9 402.4 347.1 M 475.9 175.6 C 478.2 169.9 480.5 164.2 482.9 158.5 C 486.7 149.8 490.4 140.9 494.4 132.3 C 498.4 123.6 502.7 115.1 507 106.5 C 508.4 103.7 510.3 101.4 508.5 97.8 C 507.7 96.1 509.1 93.5 509.2 91.2 C 509.3 87.8 510 83.9 508.8 80.9 C 506.3 74.4 493.1 71.4 487.2 75.2 C 485.2 76.5 482.9 77.6 480.7 78.6 C 476.2 80.4 471.4 81.4 467.3 83.7 C 458.6 88.7 450.4 94.3 441.9 99.6 C 435 103.9 428.4 108.7 421.1 112.2 C 405.6 119.7 389.6 126.3 374 133.7 C 360.9 139.9 348.1 146.7 335.2 153.3 C 328.7 156.7 322.4 160.3 315.9 163.6 C 300.7 171.2 285.5 178.7 270.3 186.2 C 266.7 187.9 262.7 189.1 259.4 191.2 C 247 199.2 234.8 207.6 222.4 215.6 C 213.8 221.1 204.9 226.2 196.1 231.6 C 193.8 233 191.5 234.4 189.5 236.1 C 184 240.7 178.6 245.4 173.3 250.2 C 167.9 255.2 161.2 259.5 157.7 265.7 C 152.5 274.7 147.5 284.2 146.4 294.9 C 145.7 302.2 144.4 309.9 145.7 316.9 C 147.6 327.2 151 337.1 155.6 346.8 C 163 362.1 170.5 377.1 180.8 390.9 C 194 408.7 208.7 425 225.2 439.7 C 240.1 453 256.3 464.7 274.6 473.5 C 285.1 478.6 295.7 483.1 307.1 485.4 C 310.6 486 315.6 484.9 318.3 482.7 C 323.1 478.8 327.1 473.7 330.7 468.6 C 336.8 460.1 342.7 451.4 348 442.3 C 353.6 432.7 358.3 422.5 363.4 412.7 C 369.3 401.1 375.6 389.7 381.3 378.1 C 387.7 365.1 393.6 351.9 399.7 338.7 C 401.1 335.7 401.9 332.3 403.3 329.2 C 408.9 316.9 414.6 304.6 420.2 292.2 C 425.3 281 430.2 269.7 435.4 258.6 C 436.8 255.6 439.6 253.3 441 250.3 C 446.8 238.1 452.4 225.7 458 213.4 C 463.8 201 469.6 188.5 475.9 175.6 M 592.4 293.1 C 592.4 295.3 591.9 297.6 592.4 299.6 C 596.7 316.2 595.8 333.2 597.4 350 C 598.1 357.8 599.4 365.5 600.3 373.3 C 601.1 380 601.8 386.7 602.3 393.5 C 602.5 395.5 601.7 397.8 602.1 399.8 C 603.3 405.9 605.1 411.9 606.3 418 C 607.9 426.1 609 434.2 610.4 442.3 C 611.6 449.4 613.3 456.5 614.3 463.7 C 616.1 476.6 619.1 489.1 625.1 500.7 C 628.6 507.3 632.6 513.8 637.2 519.7 C 640.7 524.3 644.9 528.6 651.4 529.7 C 659.7 531.2 667.8 533.9 676 535.5 C 680.6 536.4 685.4 536.8 690.1 536.5 C 695.3 536.1 700.5 533.9 705.8 533.7 C 721.8 533.1 735.2 524.9 749.2 518.9 C 762.8 513 775.5 505 787 495.4 C 795.8 488.1 805 481.1 813.1 473 C 819.5 466.6 823.9 458.4 830 451.6 C 838.8 441.9 843.1 430.6 843.3 417.6 C 843.6 403.9 837.3 391.9 831.8 379.9 C 827.9 371.5 822 363.8 816.3 356.4 C 805 341.8 793.5 327.3 781.4 313.3 C 771.5 301.9 760.6 291.3 750.4 280.1 C 741.2 269.9 732.3 259.3 723.2 248.9 C 718.8 243.9 714.5 238.9 710.2 233.9 C 704.3 227.3 698.4 220.8 692.5 214.3 C 684.7 205.4 677 196.4 668.9 187.7 C 655 172.9 640.9 158.3 626.8 143.6 C 620.8 137.3 614.8 130.9 608.8 124.5 C 608.3 124 607.9 123.3 607.4 122.7 C 601.3 115.7 595.2 108.7 589.1 101.8 C 585.9 98.3 582.8 94.8 579.6 91.4 C 578.3 90 576.7 88.8 575.2 87.6 C 573.6 89.9 570.6 92.1 570.6 94.4 C 570.6 99.2 572.1 104 573 108.8 C 574.5 116.2 576.2 123.5 577.3 131 C 578.3 138.3 578.5 145.8 579.4 153.1 C 581.3 167.7 583.8 182.1 585.2 196.7 C 586.8 212.5 587.4 228.5 588.4 244.4 C 588.7 250.3 588.5 256.4 589.5 262.1 C 591.3 272.1 592.9 282 592.4 293.1 M 934.4 339.1 C 936.7 336.7 939.1 334.4 941.4 332 C 948.9 324.2 954.4 315.1 958.3 305 C 962.4 294.5 966.2 284 970 273.4 C 972.3 267.1 974.7 260.9 976.3 254.5 C 978.6 245.2 980.5 235.8 982 226.4 C 983.2 219.1 985.5 211.2 984 204.4 C 980.3 188 970.6 175.2 955.1 167.6 C 941.8 161.1 928.4 154.9 915 148.7 C 907.5 145.3 900.3 141.7 892.2 139.6 C 884.2 137.6 876.7 133.6 868.9 130.7 C 856 126 843.1 121.3 830.1 116.9 C 819.1 113.2 808.1 109.7 796.9 106.7 C 774.4 100.5 751.9 94.6 729.4 88.6 C 721.4 86.5 712.9 85.5 705.6 82 C 690.9 74.8 674.7 73 659.4 68 C 647.6 64.1 634.5 63.7 622.1 61.6 C 613 60.1 604 58.6 595.1 56.7 C 588.5 55.3 580.9 59.7 580.3 65.6 C 579.4 75.7 582.7 84.7 587.6 93.1 C 589.2 95.8 593.2 97 594.7 99.6 C 599.2 107.5 607.4 111.7 612.4 119.5 C 618.1 128.4 626.9 135.2 634.2 143 C 642.2 151.5 650 160.2 657.9 168.7 C 670 181.5 682.1 194.2 694.2 207 C 697.9 210.9 701.9 214.6 705.3 218.8 C 710.3 224.8 714.4 231.5 719.7 237.3 C 735.1 254.1 751.3 270.4 766.5 287.4 C 777 299.3 787.4 311.2 799.6 321.5 C 812 331.8 823.5 343.1 835.9 353.4 C 843.4 359.7 852.5 363.4 862.2 364.5 C 873.9 365.8 885.2 363.2 896.4 360.1 C 910.5 356.2 922.7 348.9 934.4 339.1 M 445.9 91.6 C 447.6 90.2 449.2 88.5 451.1 87.4 C 458.5 83 465.8 78.7 473.3 74.6 C 480 71.1 487.1 68.4 493.6 64.5 C 500.5 60.3 502.9 47.5 497.3 42.4 C 490.6 36.3 482.9 30.9 474.8 26.9 C 468.7 23.8 461.4 23 454.5 21.6 C 442 19.1 429.2 17.9 417 14.4 C 400.2 9.5 382.9 8.6 365.7 6.9 C 350.3 5.3 334.7 5.8 319.2 5.7 C 312.3 5.6 305.5 6.2 298.6 6.6 C 285.9 7.3 273.1 7.8 260.4 8.6 C 243.5 9.8 226.6 11.5 209.6 12.5 C 196.8 13.3 183.9 13.2 171 13.6 C 162.8 13.9 154.6 14.3 146.5 14.6 C 145.8 14.6 145.2 14.8 144.6 14.9 C 134.4 16.8 124.1 18.6 114 20.7 C 111.3 21.2 108.2 22.3 106.5 24.2 C 93.6 38.5 86 54.6 88.2 74.8 C 89.8 89.9 89.5 105.2 90.5 120.4 C 90.8 126.4 92 132.3 93.4 138.1 C 99.2 161.5 107.1 184 119.4 204.8 C 123.9 212.6 130.8 218.2 137.8 223.5 C 144.4 228.4 151.8 225.1 158.3 223.8 C 167.7 221.9 176.7 217.7 185.9 214.6 C 198.3 210.4 210.9 206.6 223.2 202.1 C 230.9 199.4 238.4 196.1 245.7 192.5 C 261.3 185.1 276.7 177.2 292.2 169.6 C 301.2 165.3 310.5 161.5 319.4 156.9 C 326.9 153.1 333.8 148.1 341.2 144.3 C 355.3 137.2 369.5 130.5 383.6 123.6 C 397.5 116.8 411.4 110.2 425.2 103.2 C 431.9 99.7 438.3 95.5 445.9 91.6 M 581.9 654.6 C 587.7 654.3 593.6 653.9 599.5 653.6 C 605.5 653.3 611.6 653.8 617.4 652.9 C 626.3 651.6 635 649.4 643.7 647.6 C 651.5 646 659.4 644.6 667.1 642.5 C 674.3 640.6 681.3 638.2 688.2 635.5 C 703.6 629.7 719.3 624.4 734.2 617.4 C 748.3 610.7 761.5 602.1 775.1 594.3 C 782.7 590.1 790.6 586.3 797.7 581.4 C 803.8 577.3 809.6 572.9 816.4 569.7 C 821.3 567.4 825.3 563.1 829.7 559.8 C 832.5 557.7 835.6 556.2 838.3 554.1 C 848.7 545.8 858.4 537 867 526.8 C 875 517.3 884.5 509.1 893.2 500.2 C 897.4 496 901.1 491.4 905.3 487.3 C 913.3 479.4 921.6 471.8 929.5 463.8 C 934.7 458.7 939.7 453.2 944.3 447.6 C 952.3 437.8 959.9 427.7 967.7 417.8 C 969.4 415.5 971 413.2 972.3 410.7 C 977.7 400.8 983 390.8 988.4 380.8 C 990.3 377.2 992.5 373.6 994.3 369.8 C 996.2 365.9 997.7 361.9 999.5 358 C 1000.3 356.1 1001.7 354.5 1002.3 352.6 C 1005.7 343.2 1008.8 333.7 1012.3 324.3 C 1017.1 311.2 1022 298.3 1027.1 285.4 C 1031.7 273.5 1037 261.8 1041.3 249.8 C 1047 233.8 1052.2 217.6 1057.3 201.4 C 1060.6 190.9 1063.3 180.3 1066.4 169.7 C 1068.3 163 1071.5 156.4 1072.1 149.6 C 1073.3 136.1 1073.1 122.5 1073.3 108.9 C 1073.6 90.4 1073.5 71.8 1069.3 53.6 C 1067.3 45.3 1067.7 34.9 1055.5 33.2 C 1055.4 33.2 1055.3 33 1055.2 32.9 C 1054 32.5 1052.9 32.1 1051.7 31.7 C 1051.6 33.2 1051.2 34.6 1051.4 36 C 1052.2 42.1 1054 48.2 1054 54.2 C 1054 65 1052.7 75.8 1052.4 86.7 C 1051.9 105.6 1052.3 124.5 1047.6 143.1 C 1045 153.8 1045.1 165 1043.3 175.9 C 1041.3 187.5 1038.9 199 1036 210.4 C 1032.4 224.1 1028.5 237.9 1023.9 251.4 C 1020.9 260.4 1016.5 268.9 1012.7 277.7 C 1009.6 285.1 1006.6 292.5 1003.3 299.8 C 996.4 315.3 990.2 331.1 982.1 346 C 973.5 361.9 963 376.7 953.4 392.1 C 950.8 396.3 949.1 401.2 946.2 405.1 C 936.5 417.9 926.7 430.4 916.5 442.8 C 906 455.7 895.2 468.3 884.5 481 C 877.6 489 870.9 497.2 863.5 504.7 C 856.5 512 848.9 518.8 841.1 525.2 C 831.3 533.3 821.2 541.1 810.8 548.5 C 801.4 555.3 791.5 561.4 781.8 567.7 C 766.2 577.9 751.9 590 734.4 597.1 C 722.5 602 710.9 607.9 698.8 612.4 C 688.8 616.2 678.5 619.1 668.1 621.5 C 654.6 624.6 641 627.1 627.4 629.5 C 621.3 630.6 615 631 608.8 631.7 C 597.5 633 586.2 634.8 574.9 635.4 C 565.7 635.9 556.4 635 547.2 634.6 C 536.4 634 525.7 633.6 515 632.5 C 507.3 631.7 499.7 630.2 492.1 628.8 C 482.6 626.9 473.1 624.7 463.6 622.6 C 454.8 620.7 445.7 619.4 437.1 616.6 C 420.7 611.3 404.7 604.7 388.3 599.2 C 375.6 594.9 362.6 591.4 349.7 587.4 C 343 585.3 336.3 582.9 329.7 580.3 C 325.5 578.7 321.6 576.5 317.5 574.6 C 302.2 567.4 286.7 560.5 271.5 553.1 C 265 550 258.8 546.4 252.9 542.5 C 241.3 534.9 229.2 527.8 218.7 519 C 206.2 508.5 195 496.4 183.3 485.1 C 182.4 484.2 181.4 483.4 180.3 482.6 C 174.7 478.5 168.5 474.9 163.6 470 C 158.2 464.7 153.9 458.2 149.4 452 C 143.1 443.7 136.9 435.3 131 426.6 C 126.5 420.1 122.2 413.4 118.4 406.3 C 110.9 392.2 103.8 377.8 96.7 363.4 C 92.2 354.2 87.9 345 84 335.6 C 78.3 322 72.7 308.3 67.8 294.3 C 64.9 285.9 63.9 276.7 61.2 268.1 C 53.7 244.2 47.8 220.1 43.1 195.5 C 40 179.3 39.6 162.9 38.3 146.6 C 37.8 139.8 37.2 133.1 36.3 126.4 C 34.8 113.4 32.3 100.5 31.6 87.5 C 30.7 72.6 31.1 57.7 31.5 42.8 C 31.7 37.2 32.7 31.4 34.7 26.2 C 35.9 23 34.7 23.4 32.9 23.6 C 27 24.5 20.9 25 15.3 26.8 C 12.5 27.7 9.3 30.9 8.6 33.6 C 7.1 39.6 6.7 45.9 6.4 52.2 C 6.1 59.4 6.5 66.6 6.3 73.8 C 6.2 80.4 5.6 87 5.4 93.6 C 4.8 114.3 5.9 134.8 8.4 155.4 C 9.3 162.9 9.9 170.6 11.5 178.1 C 14.1 190.6 17.3 203 20.4 215.4 C 23.9 229.9 27.3 244.5 31.3 258.9 C 33.9 268.5 37.5 277.9 40.7 287.4 C 43.6 296.1 46.2 304.8 49.6 313.2 C 55.1 326.8 60.9 340.2 67 353.6 C 69.6 359.3 73.5 364.5 76.3 370.2 C 79.7 376.8 82.2 383.8 85.7 390.3 C 92.8 403.5 100.1 416.7 108 429.6 C 115.9 442.6 122.9 456.4 132.6 468.4 C 135.2 471.7 136.6 475.9 139.4 479 C 146.8 487.2 154.3 495.5 162.4 502.9 C 168.8 508.8 176.3 513.5 183.4 518.6 C 190 523.3 196.8 527.9 203.7 532.4 C 217 541.2 230.2 550.3 243.9 558.5 C 258.5 567.2 273.6 575.1 288.6 583.3 C 290 584.1 291.5 585.4 293.1 585.5 C 299.2 586.1 304 589 308.8 592.5 C 309.9 593.3 311.1 594 312.4 594.6 C 320 597.8 327.7 600.9 335.4 604.2 C 348.3 609.6 361.1 615.4 374.1 620.5 C 384.5 624.5 395 628 405.6 631.3 C 415.7 634.4 426 637.1 436.2 639.5 C 443.1 641.1 450.3 641.9 457.3 643 C 468.9 644.9 480.4 646.9 492 648.5 C 497.6 649.3 503.4 649.1 509.1 649.6 C 521.8 650.9 534.6 652.5 547.4 653.5 C 558.7 654.4 570 654.6 581.9 654.6 M 774.9 13.6 C 764.3 14.3 753.8 14.9 743.2 15.6 C 743 15.6 742.9 15.6 742.7 15.6 C 729.4 17.3 716.1 18.9 702.8 20.6 C 698.2 21.2 693.6 21.8 689 22.4 C 681.6 23.5 674.3 24.5 666.9 25.6 C 659 26.8 651.1 27.8 643.3 29.2 C 634.2 30.8 625.1 32.6 616.1 34.7 C 609.8 36.1 602.6 34.6 597.1 39.4 C 595.9 40.5 594.6 42.2 594.5 43.7 C 594 48.2 597.6 49.7 601.1 50.5 C 609.5 52.4 618 54 626.5 55.6 C 635.4 57.3 644.4 58.8 653.4 60.6 C 662.1 62.4 670.8 64.3 679.4 66.7 C 688.5 69.2 697.3 72.4 706.4 75.1 C 711.6 76.6 717.4 76.8 722.2 79.1 C 734.5 85.1 748 86.8 760.9 90.5 C 775 94.6 789.2 97.8 803.2 102 C 822.7 107.9 842 114.5 861.5 120.6 C 870.8 123.5 880.2 126.1 889.6 128.5 C 895.7 130.1 901.8 131.4 908 132.6 C 914.3 133.8 921.3 133.5 927 136.1 C 938.7 141.5 951 141.5 963.3 142.5 C 967 142.8 970.7 141.9 974.4 141.6 C 986.6 140.8 996.3 135.5 1003.3 125.5 C 1013 111.7 1017.3 95.9 1019.2 79.6 C 1020.9 65.4 1017.4 51.8 1010.2 39.5 C 1007.8 35.5 1003.4 31 999.1 29.9 C 984.9 26.4 970.4 24.2 956 21.6 C 949.1 20.4 942.2 19.5 935.2 18.6 C 928.7 17.8 922.2 17.1 915.6 16.7 C 911.2 16.4 906.8 16.8 902.4 16.5 C 899.7 16.3 897 14.8 894.2 14.7 C 876.3 13.9 858.4 12.8 840.4 12.7 C 818.9 12.6 797.4 13.3 774.9 13.6 M 504.9 58.6 C 504.2 60.3 503.3 62 502.8 63.7 C 502.2 66 501.6 67.8 504.6 69.8 C 508.6 72.5 511.9 76.4 515.2 80 C 516.7 81.7 517.5 83.1 520.2 81.7 C 523.8 79.7 527.8 78.3 531.6 76.6 C 542.3 71.5 553 72.7 563.7 76.6 C 566.9 77.8 569.9 79.2 573 80.4 C 573.5 77.1 574.4 73.8 574.3 70.5 C 573.9 61.2 578.2 54.8 586 50.7 C 589.6 48.8 589.1 46.4 587.2 44.1 C 585.9 42.6 584 41.3 582.2 40.7 C 576.3 38.7 570.3 37.1 564.5 35.2 C 551.8 31 538.8 29.4 525.7 28.7 C 515.4 28.2 505.1 28.6 494.8 28.6 C 493.8 28.7 492.8 29.3 491.8 29.7 C 492.4 30.6 492.9 31.8 493.8 32.5 C 496.2 34.3 499.5 35.4 501.2 37.7 C 505.9 43.7 507.8 50.5 504.9 58.6" stroke-linecap="round" />
</g>
</svg>